{"title":"Zombie Massacre (2013) BRRIP XviD AC3-FWOLF","uid":9501337,"size":1144541370,"categoryP":"video","categoryS":"movies","magnet":"?xt=urn:btih:ca839d49a9b165778dbbba7f5fe70d5a61503cb9&amp;dn=Zombie+Massacre+%282013%29+BRRIP+XviD+AC3-FWOLF&amp;tr=udp%3A%2F%2Ftracker.openbittorrent.com%3A80&amp;tr=udp%3A%2F%2Fopen.demonii.com%3A1337&amp;tr=udp%3A%2F%2Ftracker.coppersurfer.tk%3A6969&amp;tr=udp%3A%2F%2Fexodus.desync.com%3A6969","seeders":1,"leechers":0,"uploader":"sakhslitsa","files":3,"time":1390236373,"description":"Zombie Massacre (2013) BRRIP XviD AC3-FWOLF\n &lt;a href=&quot;\nhttp://www.imdb.com/title/tt2081438/&quot; rel=&quot;nofollow&quot; target=&quot;_NEW&quot;&gt;\nhttp://www.imdb.com/title/tt2081438/&lt;/a&gt;\n\n\n\nFormat : Matroska\nFormat version : Version 2\nFile size : 1.07 GiB\nDuration : 1h 30mn\nOverall bit rate : 1 685 Kbps\nEncoded date : UTC 2014-01-20 14:13:45\nWriting application : mkvmerge v6.5.0 ('Isn't she lovely') built on Oct 20 2013 12:50:05\nWriting library : libebml v1.3.0 + libmatroska v1.4.1\n\nVideo\nID : 1\nFormat : AVC\nFormat/Info : Advanced Video Codec\nFormat profile : &lt;a class=&quot;__cf_email__&quot; href=&quot;/cdn-cgi/l/email-protection&quot; data-cfemail=&quot;450d2c222d0509716b74&quot;&gt;[email&amp;#160;protected]&lt;/a&gt;&lt;script cf-hash='f9e31' type=&quot;text/javascript&quot;&gt;\n/* &lt;![CDATA[ */!function(){try{var t=&quot;currentScript&quot;in document?document.currentScript:function(){for(var t=document.getElementsByTagName(&quot;script&quot;),e=t.length;e--;)if(t[e].getAttribute(&quot;cf-hash&quot;))return t[e]}();if(t&amp;&amp;t.previousSibling){var e,r,n,i,c=t.previousSibling,a=c.getAttribute(&quot;data-cfemail&quot;);if(a){for(e=&quot;&quot;,r=parseInt(a.substr(0,2),16),n=2;a.length-n;n+=2)i=parseInt(a.substr(n,2),16)^r,e+=String.fromCharCode(i);e=document.createTextNode(e),c.parentNode.replaceChild(e,c)}}}catch(u){}}();/* ]]&gt; */&lt;/script&gt;\nFormat settings, CABAC : Yes\nFormat settings, ReFrames : 8 frames\nCodec ID : V_MPEG4/ISO/AVC\nDuration : 1h 30mn\nBit rate : 1 299 Kbps\nWidth : 720 pixels\nHeight : 304 pixels\nDisplay aspect ratio : 2.35:1\nFrame rate mode : Constant\nFrame rate : 24.000 fps\nColor space : YUV\nChroma subsampling : 4:2:0\nBit depth : 8 bits\nScan type : Progressive\nBits/(Pixel*Frame) : 0.247\nStream size : 821 MiB (75%)\nWriting library : x264 core 138 r2358 9e941d1\n\nLanguage : English\nDefault : Yes\nForced : No\n\nAudio\nID : 2\nFormat : AC-3\nFormat/Info : Audio Coding 3\nMode extension : CM (complete main)\nFormat settings, Endianness : Big\nCodec ID : A_AC3\nDuration : 1h 30mn\nBit rate mode : Constant\nBit rate : 384 Kbps\nChannel(s) : 6 channels\nChannel positions : Front: L C R, Side: L R, LFE\nSampling rate : 48.0 KHz\nBit depth : 16 bits\nCompression mode : Lossy\nStream size : 249 MiB (23%)\nLanguage : English\nDefault : Yes\nForced : No\n\n\n\n\nEncoded....................FWOLF\nSource.....................720p.BluRay.x264-iFPD [PublicHD] (Thanks!)\nSample.....................No\n\nSubs.......................(idx)\nSubs.......................(srt) ...No\n\n\nGreetz To: tomcat-12 | Blacksheep | PsiX | CFR .....\n.....and all P2P Encoders and Groups.....","torrent":{"xt":"urn:btih:ca839d49a9b165778dbbba7f5fe70d5a61503cb9","amp;dn":"Zombie+Massacre+%282013%29+BRRIP+XviD+AC3-FWOLF","amp;tr":["udp%3A%2F%2Ftracker.openbittorrent.com%3A80","udp%3A%2F%2Fopen.demonii.com%3A1337","udp%3A%2F%2Ftracker.coppersurfer.tk%3A6969","udp%3A%2F%2Fexodus.desync.com%3A6969"],"infoHash":"ca839d49a9b165778dbbba7f5fe70d5a61503cb9","infoHashBuffer":{"type":"Buffer","data":[202,131,157,73,169,177,101,119,141,187,186,127,95,231,13,90,97,80,60,185]},"announce":[],"urlList":[]}}